<svg width="45" height="53" viewBox="0 0 45 53" fill="none" xmlns="http://www.w3.org/2000/svg">
<mask id="mask0" mask-type="alpha" maskUnits="userSpaceOnUse" x="0" y="0" width="45" height="52">
<path opacity="0.92" d="M0.799927 18.1267C0.799927 16.5242 1.54664 15.0132 2.81963 14.0397L19.5412 1.25262C21.386 -0.158117 23.9472 -0.158118 25.792 1.25261L42.5136 14.0397C43.7865 15.0132 44.5333 16.5242 44.5333 18.1267V33.622C44.5333 35.2245 43.7865 36.7356 42.5136 37.7091L25.792 50.4961C23.9472 51.9069 21.386 51.9069 19.5412 50.4961L2.81964 37.7091C1.54664 36.7356 0.799927 35.2246 0.799927 33.622V18.1267Z" fill="#171100"/>
</mask>
<g mask="url(#mask0)">
<g filter="url(#filter0_ii)">
<path d="M0.799927 18.1267C0.799927 16.5242 1.54664 15.0132 2.81963 14.0397L19.5412 1.25262C21.386 -0.158117 23.9472 -0.158118 25.792 1.25261L42.5136 14.0397C43.7865 15.0132 44.5333 16.5242 44.5333 18.1267V33.622C44.5333 35.2245 43.7865 36.7356 42.5136 37.7091L25.792 50.4961C23.9472 51.9069 21.386 51.9069 19.5412 50.4961L2.81964 37.7091C1.54664 36.7356 0.799927 35.2246 0.799927 33.622V18.1267Z" fill="url(#paint0_radial)" fill-opacity="0.9"/>
</g>
<g filter="url(#filter1_iif)">
<path d="M44.5333 34.8933V16.8555C44.5333 16.0542 44.1599 15.2987 43.5234 14.8119L22.6666 -1.13739V52.8861L43.5234 36.9368C44.1599 36.4501 44.5333 35.6946 44.5333 34.8933Z" fill="url(#paint1_radial)" fill-opacity="0.9"/>
</g>
<g filter="url(#filter2_iif)">
<path d="M19.5412 1.25262L0.799927 15.5842L19.5412 29.9157C21.386 31.3265 23.9472 31.3265 25.792 29.9157L44.5333 15.5842L25.792 1.25261C23.9472 -0.158118 21.386 -0.158117 19.5412 1.25262Z" fill="url(#paint2_radial)" fill-opacity="0.9"/>
</g>
</g>
<defs>
<filter id="filter0_ii" x="-0.486348" y="0.19458" width="47.5922" height="53.9322" filterUnits="userSpaceOnUse" color-interpolation-filters="sRGB">
<feFlood flood-opacity="0" result="BackgroundImageFix"/>
<feBlend mode="normal" in="SourceGraphic" in2="BackgroundImageFix" result="shape"/>
<feColorMatrix in="SourceAlpha" type="matrix" values="0 0 0 0 0 0 0 0 0 0 0 0 0 0 0 0 0 0 127 0" result="hardAlpha"/>
<feOffset dx="2.57255" dy="2.57255"/>
<feGaussianBlur stdDeviation="6.43137"/>
<feComposite in2="hardAlpha" operator="arithmetic" k2="-1" k3="1"/>
<feColorMatrix type="matrix" values="0 0 0 0 0.815479 0 0 0 0 0.82293 0 0 0 0 0.904885 0 0 0 0.6 0"/>
<feBlend mode="normal" in2="shape" result="effect1_innerShadow"/>
<feColorMatrix in="SourceAlpha" type="matrix" values="0 0 0 0 0 0 0 0 0 0 0 0 0 0 0 0 0 0 127 0" result="hardAlpha"/>
<feOffset dx="-1.28627"/>
<feGaussianBlur stdDeviation="0.643137"/>
<feComposite in2="hardAlpha" operator="arithmetic" k2="-1" k3="1"/>
<feColorMatrix type="matrix" values="0 0 0 0 0.97 0 0 0 0 0.97 0 0 0 0 0.97 0 0 0 0.2 0"/>
<feBlend mode="normal" in2="effect1_innerShadow" result="effect2_innerShadow"/>
</filter>
<filter id="filter1_iif" x="20.0941" y="-3.70994" width="27.0118" height="59.1686" filterUnits="userSpaceOnUse" color-interpolation-filters="sRGB">
<feFlood flood-opacity="0" result="BackgroundImageFix"/>
<feBlend mode="normal" in="SourceGraphic" in2="BackgroundImageFix" result="shape"/>
<feColorMatrix in="SourceAlpha" type="matrix" values="0 0 0 0 0 0 0 0 0 0 0 0 0 0 0 0 0 0 127 0" result="hardAlpha"/>
<feOffset dx="2.57255" dy="2.57255"/>
<feGaussianBlur stdDeviation="10.2902"/>
<feComposite in2="hardAlpha" operator="arithmetic" k2="-1" k3="1"/>
<feColorMatrix type="matrix" values="0 0 0 0 0.783083 0 0 0 0 0.767481 0 0 0 0 0.76025 0 0 0 0.3 0"/>
<feBlend mode="normal" in2="shape" result="effect1_innerShadow"/>
<feColorMatrix in="SourceAlpha" type="matrix" values="0 0 0 0 0 0 0 0 0 0 0 0 0 0 0 0 0 0 127 0" result="hardAlpha"/>
<feOffset dx="-1.28627" dy="1.28627"/>
<feGaussianBlur stdDeviation="0.643137"/>
<feComposite in2="hardAlpha" operator="arithmetic" k2="-1" k3="1"/>
<feColorMatrix type="matrix" values="0 0 0 0 0.97 0 0 0 0 0.97 0 0 0 0 0.97 0 0 0 0.5 0"/>
<feBlend mode="normal" in2="effect1_innerShadow" result="effect2_innerShadow"/>
<feGaussianBlur stdDeviation="1.28627" result="effect3_foregroundBlur"/>
</filter>
<filter id="filter2_iif" x="-0.486348" y="-1.09169" width="47.5922" height="34.638" filterUnits="userSpaceOnUse" color-interpolation-filters="sRGB">
<feFlood flood-opacity="0" result="BackgroundImageFix"/>
<feBlend mode="normal" in="SourceGraphic" in2="BackgroundImageFix" result="shape"/>
<feColorMatrix in="SourceAlpha" type="matrix" values="0 0 0 0 0 0 0 0 0 0 0 0 0 0 0 0 0 0 127 0" result="hardAlpha"/>
<feOffset dx="2.57255" dy="2.57255"/>
<feGaussianBlur stdDeviation="3.85882"/>
<feComposite in2="hardAlpha" operator="arithmetic" k2="-1" k3="1"/>
<feColorMatrix type="matrix" values="0 0 0 0 0.858292 0 0 0 0 0.848099 0 0 0 0 0.843375 0 0 0 0.6 0"/>
<feBlend mode="normal" in2="shape" result="effect1_innerShadow"/>
<feColorMatrix in="SourceAlpha" type="matrix" values="0 0 0 0 0 0 0 0 0 0 0 0 0 0 0 0 0 0 127 0" result="hardAlpha"/>
<feOffset dx="-2.57255"/>
<feGaussianBlur stdDeviation="0.643137"/>
<feComposite in2="hardAlpha" operator="arithmetic" k2="-1" k3="1"/>
<feColorMatrix type="matrix" values="0 0 0 0 0.99 0 0 0 0 0.99 0 0 0 0 0.99 0 0 0 0.8 0"/>
<feBlend mode="normal" in2="effect1_innerShadow" result="effect2_innerShadow"/>
<feGaussianBlur stdDeviation="0.643137" result="effect3_foregroundBlur"/>
</filter>
<radialGradient id="paint0_radial" cx="0" cy="0" r="1" gradientUnits="userSpaceOnUse" gradientTransform="translate(33.3488 31.4508) rotate(-113.885) scale(105.746 3435.56)">
<stop stop-color="#EAE8E8"/>
<stop offset="1" stop-color="#EEEDEC"/>
</radialGradient>
<radialGradient id="paint1_radial" cx="0" cy="0" r="1" gradientUnits="userSpaceOnUse" gradientTransform="translate(49.0353 62.5334) rotate(-136.273) scale(81.8783 1943.2)">
<stop stop-color="#E8E6E6"/>
<stop offset="1" stop-color="#D6D3D1"/>
</radialGradient>
<radialGradient id="paint2_radial" cx="0" cy="0" r="1" gradientUnits="userSpaceOnUse" gradientTransform="translate(40.031 23.2378) rotate(-156.43) scale(56.1337 1223.95)">
<stop stop-color="#F7F7F7"/>
<stop offset="1" stop-color="#EAE8E8"/>
</radialGradient>
</defs>
</svg>
